<?xml version="1.0" encoding="UTF-8"?>
<svg width="36px" height="36px" viewBox="0 0 36 36" version="1.1" xmlns="http://www.w3.org/2000/svg" xmlns:xlink="http://www.w3.org/1999/xlink">
    <!-- Generator: Sketch 52.6 (67491) - http://www.bohemiancoding.com/sketch -->
    <title>Logo</title>
    <desc>Created with Sketch.</desc>
    <defs>
        <filter x="-37.9%" y="-37.9%" width="180.0%" height="180.0%" filterUnits="objectBoundingBox" id="filter-1">
            <feOffset dx="1" dy="1" in="SourceAlpha" result="shadowOffsetOuter1"></feOffset>
            <feGaussianBlur stdDeviation="1.5" in="shadowOffsetOuter1" result="shadowBlurOuter1"></feGaussianBlur>
            <feColorMatrix values="0 0 0 0 0   0 0 0 0 0   0 0 0 0 0  0 0 0 0.5 0" type="matrix" in="shadowBlurOuter1" result="shadowMatrixOuter1"></feColorMatrix>
            <feMerge>
                <feMergeNode in="shadowMatrixOuter1"></feMergeNode>
                <feMergeNode in="SourceGraphic"></feMergeNode>
            </feMerge>
        </filter>
        <linearGradient x1="0%" y1="0%" x2="93.3679043%" y2="94.5460986%" id="linearGradient-2">
            <stop stop-color="#FFFFFF" offset="0%"></stop>
            <stop stop-color="#C1C1C1" offset="100%"></stop>
        </linearGradient>
        <filter x="-37.9%" y="-37.9%" width="180.0%" height="180.0%" filterUnits="objectBoundingBox" id="filter-3">
            <feOffset dx="1" dy="1" in="SourceAlpha" result="shadowOffsetOuter1"></feOffset>
            <feGaussianBlur stdDeviation="1.5" in="shadowOffsetOuter1" result="shadowBlurOuter1"></feGaussianBlur>
            <feColorMatrix values="0 0 0 0 0   0 0 0 0 0   0 0 0 0 0  0 0 0 0.5 0" type="matrix" in="shadowBlurOuter1" result="shadowMatrixOuter1"></feColorMatrix>
            <feMerge>
                <feMergeNode in="shadowMatrixOuter1"></feMergeNode>
                <feMergeNode in="SourceGraphic"></feMergeNode>
            </feMerge>
        </filter>
    </defs>
    <g id="Page-1" stroke="none" stroke-width="1" fill="none" fill-rule="evenodd">
        <g id="desktop_home" transform="translate(-31.000000, -9.000000)" fill="url(#linearGradient-2)">
            <g id="header" transform="translate(16.000000, 0.000000)">
                <g id="Logo" transform="translate(32.000000, 26.000000) scale(-1, 1) translate(-32.000000, -26.000000) translate(17.000000, 11.000000)">
                    <g id="logonew" filter="url(#filter-1)" opacity="0.977807971" transform="translate(15.000000, 15.000000) rotate(180.000000) translate(-15.000000, -15.000000) translate(4.444444, 4.444444)">
                        <path d="M0.0444042477,0 C0.0444042477,0 -0.0951519593,7.43524174 1.4780271,8.90719315 C2.61350715,10.240756 6.14681657,10.5175332 8.44315052,10.5552755 C9.61034789,10.5741467 10.5618675,9.63687847 10.555524,8.47944659 C10.5428371,6.18974439 10.2890985,2.65454485 8.9569711,1.51598415 C7.48528747,-0.0691942971 0,0.0754846877 0,0.0754846877" id="Shape"></path>
                        <path d="M21.1111111,0.0444042477 C21.1111111,0.0444042477 13.6758694,-0.0951519593 12.203918,1.4780271 C10.8703551,2.61985061 10.593578,6.15316004 10.5558356,8.44315052 C10.5369644,9.61034789 11.4742326,10.5618675 12.6316645,10.555524 C14.9213667,10.5428371 18.4565663,10.2890985 19.595127,8.9569711 C21.174015,7.48528747 21.029336,0 21.029336,0" id="Shape"></path>
                        <path d="M0.0444042477,10.5555556 C0.0444042477,10.5555556 -0.0951519593,17.9907973 1.4780271,19.4627487 C2.61350715,20.7963115 6.14681657,21.0730887 8.44315052,21.1108311 C9.61034789,21.1297022 10.5618675,20.192434 10.555524,19.0350021 C10.5428371,16.7452999 10.2890985,13.2101004 8.9569711,12.0715397 C7.48528747,10.4863613 -2.84217094e-14,10.6310402 -2.84217094e-14,10.6310402" id="Shape" transform="translate(5.277778, 15.833333) scale(1, -1) translate(-5.277778, -15.833333) "></path>
                        <path d="M21.1111111,10.5999598 C21.1111111,10.5999598 13.6758694,10.4604036 12.203918,12.0335827 C10.8703551,13.1754062 10.593578,16.7087156 10.5558356,18.9987061 C10.5369644,20.1659034 11.4742326,21.117423 12.6316645,21.1110796 C14.9213667,21.0983926 18.4565663,20.8446541 19.595127,19.5125267 C21.174015,18.040843 21.029336,10.5555556 21.029336,10.5555556" id="Shape" transform="translate(15.833333, 15.833333) scale(1, -1) translate(-15.833333, -15.833333) "></path>
                    </g>
                    <g id="logonew" filter="url(#filter-3)" opacity="0.800000012" transform="translate(15.000000, 15.000000) rotate(45.000000) translate(-15.000000, -15.000000) translate(4.444444, 4.444444)">
                        <path d="M0.0444042477,0 C0.0444042477,0 -0.0951519593,7.43524174 1.4780271,8.90719315 C2.61350715,10.240756 6.14681657,10.5175332 8.44315052,10.5552755 C9.61034789,10.5741467 10.5618675,9.63687847 10.555524,8.47944659 C10.5428371,6.18974439 10.2890985,2.65454485 8.9569711,1.51598415 C7.48528747,-0.0691942971 0,0.0754846877 0,0.0754846877" id="Shape"></path>
                        <path d="M21.1111111,0.0444042477 C21.1111111,0.0444042477 13.6758694,-0.0951519593 12.203918,1.4780271 C10.8703551,2.61985061 10.593578,6.15316004 10.5558356,8.44315052 C10.5369644,9.61034789 11.4742326,10.5618675 12.6316645,10.555524 C14.9213667,10.5428371 18.4565663,10.2890985 19.595127,8.9569711 C21.174015,7.48528747 21.029336,0 21.029336,0" id="Shape"></path>
                        <path d="M0.0444042477,10.5555556 C0.0444042477,10.5555556 -0.0951519593,17.9907973 1.4780271,19.4627487 C2.61350715,20.7963115 6.14681657,21.0730887 8.44315052,21.1108311 C9.61034789,21.1297022 10.5618675,20.192434 10.555524,19.0350021 C10.5428371,16.7452999 10.2890985,13.2101004 8.9569711,12.0715397 C7.48528747,10.4863613 -2.84217094e-14,10.6310402 -2.84217094e-14,10.6310402" id="Shape" transform="translate(5.277778, 15.833333) scale(1, -1) translate(-5.277778, -15.833333) "></path>
                        <path d="M21.1111111,10.5999598 C21.1111111,10.5999598 13.6758694,10.4604036 12.203918,12.0335827 C10.8703551,13.1754062 10.593578,16.7087156 10.5558356,18.9987061 C10.5369644,20.1659034 11.4742326,21.117423 12.6316645,21.1110796 C14.9213667,21.0983926 18.4565663,20.8446541 19.595127,19.5125267 C21.174015,18.040843 21.029336,10.5555556 21.029336,10.5555556" id="Shape" transform="translate(15.833333, 15.833333) scale(1, -1) translate(-15.833333, -15.833333) "></path>
                    </g>
                </g>
            </g>
        </g>
    </g>
</svg>